<?xml version="1.0" encoding="UTF-8" standalone="no"?>
<!DOCTYPE svg PUBLIC "-//W3C//DTD SVG 1.1//EN" "http://www.w3.org/Graphics/SVG/1.1/DTD/svg11.dtd">
<svg xmlns:xl="http://www.w3.org/1999/xlink" xmlns:dc="http://purl.org/dc/elements/1.1/" xmlns="http://www.w3.org/2000/svg" version="1.1" viewBox="3101.3578 110.04602 321.95398 321.95398" width="321.95398" height="321.95398">
  <defs/>
  <g id="Page" fill-opacity="1" stroke="none" fill="none" stroke-opacity="1" stroke-dasharray="none">
    <title>Page</title>
    <g id="Page: Layer 1">
      <title>Layer 1</title>
      <g id="Graphic_91">
        <path d="M 3101.3578 110.04602 L 3101.3578 432 L 3423.3118 432 L 3423.3118 110.04602 Z M 3332.671 280.3826 L 3332.671 280.3826 C 3315.161 288.33977 3297.714 296.26222 3280.273 304.19046 C 3274.7505 306.7002 3269.228 309.21573 3263.717 311.7544 C 3262.543 312.29797 3261.5426 312.58133 3260.201 311.96257 C 3237.0812 301.39158 3213.9384 290.8842 3190.7898 280.35948 C 3191.073 279.30123 3192.0736 279.2376 3192.8138 278.9022 C 3215.17 268.73602 3237.538 258.59875 3259.8945 248.421 C 3261.109 247.86584 3262.1324 247.7097 3263.4104 248.29377 C 3286.102 258.6508 3308.8113 268.96733 3331.5204 279.29544 C 3331.931 279.48628 3332.4688 279.53254 3332.671 280.3826 Z M 3324.1358 351.5228 L 3324.1358 351.5228 C 3320.4348 353.16513 3316.942 354.686 3313.4722 356.2647 C 3299.2696 362.70678 3285.09 369.20666 3270.8587 375.57354 C 3268.8405 376.47566 3267.996 377.4761 3268.031 379.8297 C 3268.1928 389.5564 3268.0077 399.29465 3268.164 409.02135 C 3268.2044 411.5022 3267.464 412.15563 3265.1048 411.9706 C 3262.4215 411.7624 3259.7036 411.80867 3257.0146 411.959 C 3255.0658 412.0689 3254.5974 411.34026 3254.6147 409.49554 C 3254.6957 399.9597 3254.4875 390.41225 3254.742 380.88217 C 3254.8287 377.61488 3253.6374 376.21543 3250.7807 374.949 C 3233.5364 367.29833 3216.3846 359.4395 3199.1575 351.6327 C 3199.3715 350.70165 3200.2274 350.6496 3200.8403 350.36625 C 3220.3747 341.45493 3239.9264 332.56674 3259.455 323.63807 C 3260.7677 323.03666 3261.8837 322.88053 3263.266 323.51085 C 3283.147 332.59566 3303.046 341.6342 3322.9387 350.69587 C 3323.28 350.84044 3323.5633 351.11223 3324.1358 351.5228 Z M 3199.2963 209.0458 L 3199.2963 209.0458 C 3206.0738 205.92308 3212.8686 202.75988 3219.6808 199.6545 C 3232.906 193.62303 3246.1487 187.62047 3259.3798 181.59477 C 3260.629 181.02806 3261.7045 180.66374 3263.15 181.32876 C 3282.6614 190.29213 3302.2015 199.18031 3321.736 208.09163 C 3322.43 208.4097 3323.1064 208.76244 3324.2977 209.35807 C 3321.4005 210.65342 3318.908 211.75216 3316.4215 212.8798 C 3298.813 220.90057 3281.204 228.92712 3263.607 236.9768 C 3262.3464 237.55508 3261.2592 237.8847 3259.8135 237.22546 C 3240.123 228.19848 3220.398 219.24668 3200.6842 210.27175 C 3200.1753 210.03466 3199.5797 209.8901 3199.2963 209.0458 Z M 3243.5638 242.35482 L 3243.5638 242.35482 C 3235.9247 245.72041 3228.459 249.01662 3220.982 252.30126 C 3205.912 258.9168 3190.8187 265.4803 3175.789 272.18258 C 3173.5917 273.16566 3173.2852 272.6799 3173.291 270.51713 C 3173.349 251.63624 3173.32 232.75534 3173.343 213.88023 C 3173.343 212.7468 3172.649 210.81534 3175.257 211.96612 C 3197.7003 221.89521 3220.1665 231.77226 3242.627 241.67244 C 3242.8756 241.78232 3243.084 242.00206 3243.5638 242.35482 Z M 3158.4465 280.94933 L 3158.4465 280.94933 C 3187.135 293.0007 3215.2453 304.80344 3243.373 316.61774 C 3243.321 317.71647 3242.3783 317.71647 3241.771 317.98826 C 3223.833 325.99746 3205.8656 333.93727 3187.962 342.0101 C 3185.7356 343.0163 3185.0186 342.31657 3184.1743 340.37354 C 3175.818 321.12255 3167.381 301.90047 3158.967 282.6726 C 3158.8224 282.33142 3158.753 281.96132 3158.4465 280.94933 Z M 3366.223 280.81054 L 3366.223 280.81054 C 3359.3358 296.5456 3352.8185 311.43633 3346.2897 326.3213 C 3344.127 331.25404 3341.941 336.181 3339.784 341.11953 C 3339.2925 342.24718 3338.9513 343.13195 3337.309 342.39753 C 3318.7 334.03558 3300.062 325.7488 3281.4354 317.4331 C 3281.2793 317.36372 3281.1752 317.1671 3280.753 316.71604 C 3309.0715 304.8208 3337.251 292.98337 3366.223 280.81054 Z M 3280.3483 242.2218 L 3280.3483 242.2218 C 3304.1503 231.75491 3327.2816 221.58294 3350.679 211.28953 C 3350.679 231.9978 3350.679 252.3533 3350.679 273.13096 C 3327.3047 262.86068 3304.1677 252.6887 3280.3483 242.2218 Z M 3289.196 157.2202 L 3289.196 157.2202 C 3289.1266 157.9951 3288.583 158.03558 3288.161 158.20906 C 3280.0476 161.4937 3271.9285 164.75521 3263.8383 168.0919 C 3262.7916 168.5256 3262.005 168.23647 3261.103 167.86637 C 3253.441 164.75521 3245.79 161.60936 3238.0875 158.59651 C 3236.1213 157.8274 3236.312 157.19707 3237.5844 155.8728 C 3245.4605 147.69012 3253.2905 139.46118 3261.0857 131.20331 C 3262.2943 129.91953 3263.0634 129.57834 3264.4802 131.09344 C 3272.3044 139.46118 3280.2384 147.71904 3288.1377 156.01738 C 3288.531 156.43374 3288.8837 156.86745 3289.196 157.2202 Z M 3201.577 194.48117 C 3201.58 194.49004 3201.583 194.49891 3201.5863 194.5078 C 3201.5285 194.5714 3201.4707 194.6408 3201.413 194.70441 C 3201.4533 194.62345 3201.4996 194.54828 3201.546 194.46732 L 3201.558 194.47949 C 3201.5644 194.48007 3201.5707 194.48063 3201.577 194.48117 Z M 3201.577 194.48117 C 3201.577 194.48117 3201.577 194.48116 3201.577 194.48116 Z M 3201.577 194.48116 C 3201.3097 193.6996 3201.6065 192.9961 3201.858 192.27563 C 3205.1485 182.8265 3208.4505 173.38317 3211.712 163.92249 C 3212.1457 162.6734 3212.4638 161.90428 3214.083 162.65027 C 3223.272 166.86016 3232.507 170.96596 3241.719 175.11802 C 3241.962 175.2279 3242.147 175.47655 3242.604 175.86978 C 3237.8504 178.07304 3233.2472 180.2069 3228.644 182.33497 C 3220.5135 186.08802 3212.383 189.84107 3204.2406 193.57098 C 3203.392 193.96098 3202.5942 194.56711 3201.577 194.48117 Z M 3322.385 194.44818 C 3322.404 194.45265 3322.4226 194.4571 3322.4414 194.46154 C 3322.4992 194.51358 3322.5513 194.55984 3322.609 194.6119 C 3322.5397 194.5772 3322.4703 194.53671 3322.401 194.50202 C 3322.3957 194.48407 3322.3904 194.46612 3322.385 194.44817 Z M 3322.385 194.44818 C 3317.8806 193.37161 3313.935 190.9552 3309.7597 189.09508 C 3300.883 185.13964 3292.0874 180.9818 3283.2686 176.89912 C 3282.667 176.62155 3282.0947 176.29193 3281.528 175.997 C 3281.6494 175.01393 3282.407 174.9214 3282.962 174.67274 C 3291.827 170.68838 3300.7038 166.72137 3309.5804 162.76014 C 3310.332 162.42474 3311.165 161.75971 3311.639 163.1418 C 3315.207 173.57947 3319.2875 183.84424 3322.385 194.44817 Z" fill="#666"/>
      </g>
    </g>
  </g>
</svg>
