<?xml version="1.0" encoding="UTF-8" standalone="no"?>
<!DOCTYPE svg PUBLIC "-//W3C//DTD SVG 1.1//EN" "http://www.w3.org/Graphics/SVG/1.1/DTD/svg11.dtd">
<svg xmlns:xl="http://www.w3.org/1999/xlink" xmlns:dc="http://purl.org/dc/elements/1.1/" xmlns="http://www.w3.org/2000/svg" version="1.1" viewBox="2465.4127 110.04602 32 32" width="32" height="32">
  <defs/>
  <metadata> Produced by OmniGraffle 7.9.3 
    <dc:date>2019-05-26 15:34:50 +0000</dc:date>
  </metadata>
  <g id="Page" fill-opacity="1" stroke="none" fill="none" stroke-opacity="1" stroke-dasharray="none">
    <title>Page</title>
    <g id="Page: Layer 1">
      <title>Layer 1</title>
      <g id="Graphic_166">
        <path d="M 2495.6474 110.04602 L 2467.178 110.04602 C 2466.2034 110.04602 2465.4127 110.83669 2465.4127 111.81135 L 2465.4127 140.28069 C 2465.4127 141.25669 2466.2034 142.04602 2467.178 142.04602 L 2495.646 142.04602 C 2496.6234 142.04602 2497.4127 141.25669 2497.4127 140.28069 L 2497.4127 111.81135 C 2497.4127 110.83669 2496.6234 110.04602 2495.6474 110.04602 M 2485.053 114.42543 C 2489.8027 114.42543 2493.6667 118.30095 2493.6667 123.06495 C 2493.6667 127.81452 2489.8027 131.67872 2485.053 131.67872 C 2480.2888 131.67872 2476.4127 127.81452 2476.4127 123.06495 C 2476.4127 118.30095 2480.2888 114.42543 2485.053 114.42543 M 2469.6667 137.44133 L 2469.6667 114.42533 L 2473.8907 114.42533 L 2473.8907 137.44133 Z" fill="#666"/>
      </g>
    </g>
  </g>
</svg>
