<?xml version="1.0" encoding="UTF-8" standalone="no"?>
<!DOCTYPE svg PUBLIC "-//W3C//DTD SVG 1.1//EN" "http://www.w3.org/Graphics/SVG/1.1/DTD/svg11.dtd">
<svg xmlns="http://www.w3.org/2000/svg" xmlns:dc="http://purl.org/dc/elements/1.1/" xmlns:xl="http://www.w3.org/1999/xlink" version="1.1" viewBox="1655.2385 110 321.95398 321.95398" width="321.95398" height="321.95398">
  <defs/>
  <g id="Page" fill="none" stroke="none" stroke-opacity="1" fill-opacity="1" stroke-dasharray="none">
    <title>Page</title>
    <g id="Page: Layer 1">
      <title>Layer 1</title>
      <g id="Graphic_40">
        <path d="M 1655.2385 110 L 1655.2385 431.954 L 1977.1925 431.954 L 1977.1925 110 Z M 1954.5837 323 L 1954.5837 219 L 1962.2146 219 L 1962.2146 323 Z M 1912.096 253.66855 L 1919.6792 253.66855 L 1919.6792 286.6407 L 1911.7194 286.6407 L 1899.8477 265.44366 L 1899.8477 286.6407 L 1892.2168 286.6407 L 1892.2168 253.66855 L 1900.1767 253.66855 L 1912.096 275.14725 Z M 1862.1186 252.8204 L 1862.1186 252.8204 C 1873.0452 252.8204 1879.546 261.1109 1879.546 270.15467 C 1879.546 279.19833 1873.0452 287.48894 1862.1186 287.48894 C 1851.1424 287.48894 1844.6416 279.19833 1844.6416 270.15467 C 1844.6416 261.1109 1851.1424 252.8204 1862.1186 252.8204 Z M 1871.775 270.15467 C 1871.775 264.7379 1868.0997 259.69773 1862.1186 259.69773 C 1856.0889 259.69773 1852.4622 264.7379 1852.4622 270.15467 C 1852.4622 275.57143 1856.0889 280.6115 1862.1186 280.6115 C 1868.0997 280.6115 1871.775 275.57143 1871.775 270.15467 Z M 1738.8954 260.26264 L 1738.8954 253.66855 L 1761.4564 253.66855 L 1761.4564 260.26264 L 1753.9666 260.26264 L 1753.9666 286.6407 L 1746.336 286.6407 L 1746.336 260.26264 Z M 1819.772 267.28092 L 1832.254 267.28092 L 1832.254 273.26425 L 1819.772 273.26425 L 1819.772 280.5165 L 1832.254 280.5165 L 1832.254 286.6407 L 1812.1412 286.6407 L 1812.1412 253.66855 L 1832.254 253.66855 L 1832.254 259.79272 L 1819.772 259.79272 Z M 1787.1763 253.66855 L 1787.1763 253.66855 C 1794.4763 253.66855 1799.1872 259.1803 1799.1872 265.58606 C 1799.1872 270.20216 1796.7373 274.2991 1792.6386 276.23134 L 1799.2349 286.6407 L 1790.3795 286.6407 L 1784.5367 277.50192 L 1780.9568 277.50192 L 1780.9568 286.6407 L 1773.3268 286.6407 L 1773.3268 253.66855 Z M 1791.4619 265.58606 C 1791.4619 262.52398 1789.3887 259.88606 1786.1855 259.88606 L 1780.9568 259.88606 L 1780.9568 271.2845 L 1786.1855 271.2845 C 1789.3887 271.2845 1791.4619 268.64815 1791.4619 265.58606 Z M 1723.9633 282.6371 L 1712.234 282.6371 L 1710.9617 286.6407 L 1702.812 286.6407 L 1714.5887 253.66855 L 1721.6069 253.66855 L 1733.5244 286.6407 L 1725.2339 286.6407 Z M 1718.1207 263.089 L 1714.0696 276.65542 L 1722.0768 276.65542 Z M 1684.017 253.66855 L 1684.017 253.66855 C 1691.3186 253.66855 1696.0296 259.1803 1696.0296 265.58606 C 1696.0296 271.99182 1691.3186 277.50192 1684.017 277.50192 L 1677.847 277.50192 L 1677.847 286.6407 L 1670.2165 286.6407 L 1670.2165 253.66855 Z M 1688.3515 265.58606 C 1688.3515 262.52398 1686.2784 259.88606 1683.0755 259.88606 L 1677.847 259.88606 L 1677.847 271.2845 L 1683.0755 271.2845 C 1686.2784 271.2845 1688.3515 268.64815 1688.3515 265.58606 Z" fill="#666"/>
      </g>
    </g>
  </g>
</svg>
