<?xml version="1.0" encoding="UTF-8" standalone="no"?>
<!DOCTYPE svg PUBLIC "-//W3C//DTD SVG 1.1//EN" "http://www.w3.org/Graphics/SVG/1.1/DTD/svg11.dtd">
<svg xmlns="http://www.w3.org/2000/svg" xmlns:dc="http://purl.org/dc/elements/1.1/" xmlns:xl="http://www.w3.org/1999/xlink" version="1.1" viewBox="1292.1193 110 321.95398 322" width="321.95398" height="322">
  <defs/>
  <g id="Page" fill="none" stroke="none" stroke-opacity="1" fill-opacity="1" stroke-dasharray="none">
    <title>Page</title>
    <g id="Page: Layer 1">
      <title>Layer 1</title>
      <g id="Graphic_33">
        <path d="M 1292.1193 278.369 L 1292.1193 431.954 L 1404.0284 431.954 C 1410.7192 432.43014 1413.2142 427.88224 1413.2142 423.93244 C 1413.2142 420.0891 1413.0734 409.92744 1412.9929 396.4456 C 1368.2211 406.20485 1358.7637 374.7741 1358.7637 374.7741 C 1351.4594 356.10076 1340.8953 351.1306 1340.8953 351.1306 C 1326.2665 341.10978 1341.9819 341.311 1341.9819 341.311 C 1358.14 342.45796 1366.6315 357.9721 1366.6315 357.9721 C 1380.9987 382.66196 1404.3202 375.53873 1413.496 371.39358 C 1414.9447 360.9502 1419.11 353.82696 1423.718 349.7824 C 1387.981 345.69762 1350.393 331.8335 1350.393 269.9177 C 1350.393 252.2706 1356.671 237.84304 1366.9736 226.5344 C 1365.3034 222.44962 1359.79 206.00984 1368.5431 183.7749 C 1368.5431 183.7749 1382.0652 179.42852 1412.8118 200.3354 C 1425.6497 196.75366 1439.4132 194.9628 1453.1164 194.90243 C 1466.7793 194.98292 1480.563 196.75366 1493.421 200.35552 C 1524.1475 179.44864 1537.6494 183.79502 1537.6494 183.79502 C 1546.4227 206.05009 1540.9092 222.46974 1539.2592 226.55453 C 1549.5818 237.86316 1555.7996 252.29073 1555.7996 269.93783 C 1555.7996 332.01458 1518.1712 345.6775 1482.3136 349.6818 C 1488.0886 354.6721 1493.2399 364.53193 1493.2399 379.6034 C 1493.2399 401.21456 1493.0387 418.6403 1493.0387 423.93244 C 1493.0387 427.9218 1495.5025 432.51 1502.292 431.954 L 1614.0733 431.954 L 1614.0733 278.369 L 1614.0733 110 L 1292.1193 110 Z" fill="#666"/>
      </g>
    </g>
  </g>
</svg>
