<?xml version="1.0" encoding="UTF-8" standalone="no"?>
<!DOCTYPE svg PUBLIC "-//W3C//DTD SVG 1.1//EN" "http://www.w3.org/Graphics/SVG/1.1/DTD/svg11.dtd">
<svg xmlns:xl="http://www.w3.org/1999/xlink" xmlns:dc="http://purl.org/dc/elements/1.1/" xmlns="http://www.w3.org/2000/svg" version="1.1" viewBox="2425.2 110.04602 32 32" width="32" height="32">
  <defs/>
  <metadata> Produced by OmniGraffle 7.9.3 
    <dc:date>2019-05-26 15:32:22 +0000</dc:date>
  </metadata>
  <g id="Page" fill-opacity="1" stroke="none" fill="none" stroke-opacity="1" stroke-dasharray="none">
    <title>Page</title>
    <g id="Page: Layer 1">
      <title>Layer 1</title>
      <g id="Graphic_153">
        <path d="M 2452.4627 137.31535 L 2447.724 137.31535 L 2447.724 129.89002 C 2447.724 128.11935 2447.688 125.84069 2445.2547 125.84069 C 2442.784 125.84069 2442.4067 127.76735 2442.4067 129.75935 L 2442.4067 137.31535 L 2437.668 137.31535 L 2437.668 122.04602 L 2442.22 122.04602 L 2442.22 124.12735 L 2442.2814 124.12735 C 2442.9174 122.92735 2444.464 121.66069 2446.7747 121.66069 C 2451.576 121.66069 2452.464 124.82069 2452.464 128.93402 L 2452.464 137.31535 Z M 2432.316 119.95669 C 2430.7907 119.95669 2429.5654 118.72202 2429.5654 117.20335 C 2429.5654 115.68602 2430.792 114.45269 2432.316 114.45269 C 2433.836 114.45269 2435.068 115.68602 2435.068 117.20335 C 2435.068 118.72202 2433.8347 119.95669 2432.316 119.95669 Z M 2434.692 137.31535 L 2429.94 137.31535 L 2429.94 122.04602 L 2434.692 122.04602 Z M 2454.8334 110.04602 L 2427.5614 110.04602 C 2426.256 110.04602 2425.2 111.07802 2425.2 112.35135 L 2425.2 139.74069 C 2425.2 141.01535 2426.256 142.04602 2427.5614 142.04602 L 2454.8294 142.04602 C 2456.1334 142.04602 2457.2 141.01535 2457.2 139.74069 L 2457.2 112.35135 C 2457.2 111.07802 2456.1334 110.04602 2454.8294 110.04602 Z" fill="#666"/>
      </g>
    </g>
  </g>
</svg>
