<?xml version="1.0" encoding="UTF-8" standalone="no"?>
<!DOCTYPE svg PUBLIC "-//W3C//DTD SVG 1.1//EN" "http://www.w3.org/Graphics/SVG/1.1/DTD/svg11.dtd">
<svg xmlns="http://www.w3.org/2000/svg" xmlns:dc="http://purl.org/dc/elements/1.1/" xmlns:xl="http://www.w3.org/1999/xlink" version="1.1" viewBox="2375.1193 190.55752 321.95398 160.977" width="321.95398" height="160.977">
  <defs/>
  <g id="Page" fill="none" stroke="none" stroke-opacity="1" fill-opacity="1" stroke-dasharray="none">
    <title>Page</title>
    <g id="Page: Layer 1">
      <title>Layer 1</title>
      <g id="Graphic_47">
        <path d="M 2375.1193 190.55752 L 2375.1193 351.53452 L 2697.0733 351.53452 L 2697.0733 190.55752 Z M 2674.4644 323.04602 L 2674.4644 219.04602 L 2682.0953 219.04602 L 2682.0953 323.04602 Z M 2631.9768 253.71457 L 2639.56 253.71457 L 2639.56 286.6867 L 2631.6 286.6867 L 2619.7284 265.4897 L 2619.7284 286.6867 L 2612.0975 286.6867 L 2612.0975 253.71457 L 2620.0574 253.71457 L 2631.9768 275.19327 Z M 2581.9993 252.8664 L 2581.9993 252.8664 C 2592.926 252.8664 2599.4268 261.15692 2599.4268 270.2007 C 2599.4268 279.24435 2592.926 287.53496 2581.9993 287.53496 C 2571.023 287.53496 2564.5223 279.24435 2564.5223 270.2007 C 2564.5223 261.15692 2571.023 252.8664 2581.9993 252.8664 Z M 2591.6557 270.2007 C 2591.6557 264.78393 2587.9804 259.74375 2581.9993 259.74375 C 2575.9696 259.74375 2572.343 264.78393 2572.343 270.2007 C 2572.343 275.61745 2575.9696 280.65753 2581.9993 280.65753 C 2587.9804 280.65753 2591.6557 275.61745 2591.6557 270.2007 Z M 2458.776 260.30867 L 2458.776 253.71457 L 2481.3372 253.71457 L 2481.3372 260.30867 L 2473.8473 260.30867 L 2473.8473 286.6867 L 2466.2167 286.6867 L 2466.2167 260.30867 Z M 2539.6528 267.32694 L 2552.1347 267.32694 L 2552.1347 273.31027 L 2539.6528 273.31027 L 2539.6528 280.56253 L 2552.1347 280.56253 L 2552.1347 286.6867 L 2532.022 286.6867 L 2532.022 253.71457 L 2552.1347 253.71457 L 2552.1347 259.83874 L 2539.6528 259.83874 Z M 2507.057 253.71457 L 2507.057 253.71457 C 2514.357 253.71457 2519.068 259.22633 2519.068 265.63208 C 2519.068 270.2482 2516.618 274.3451 2512.5194 276.27736 L 2519.1156 286.6867 L 2510.2603 286.6867 L 2504.4174 277.54794 L 2500.8375 277.54794 L 2500.8375 286.6867 L 2493.2076 286.6867 L 2493.2076 253.71457 Z M 2511.3426 265.63208 C 2511.3426 262.57 2509.2694 259.9321 2506.0662 259.9321 L 2500.8375 259.9321 L 2500.8375 271.33052 L 2506.0662 271.33052 C 2509.2694 271.33052 2511.3426 268.69417 2511.3426 265.63208 Z M 2443.844 282.68312 L 2432.1148 282.68312 L 2430.8424 286.6867 L 2422.6927 286.6867 L 2434.4694 253.71457 L 2441.4876 253.71457 L 2453.405 286.6867 L 2445.1146 286.6867 Z M 2438.0014 263.135 L 2433.9504 276.70144 L 2441.9575 276.70144 Z M 2403.8978 253.71457 L 2403.8978 253.71457 C 2411.1993 253.71457 2415.9103 259.22633 2415.9103 265.63208 C 2415.9103 272.03784 2411.1993 277.54794 2403.8978 277.54794 L 2397.7278 277.54794 L 2397.7278 286.6867 L 2390.0972 286.6867 L 2390.0972 253.71457 Z M 2408.2322 265.63208 C 2408.2322 262.57 2406.159 259.9321 2402.9562 259.9321 L 2397.7278 259.9321 L 2397.7278 271.33052 L 2402.9562 271.33052 C 2406.159 271.33052 2408.2322 268.69417 2408.2322 265.63208 Z" fill="#666"/>
      </g>
    </g>
  </g>
</svg>
