<?xml version="1.0" encoding="UTF-8" standalone="no"?>
<!DOCTYPE svg PUBLIC "-//W3C//DTD SVG 1.1//EN" "http://www.w3.org/Graphics/SVG/1.1/DTD/svg11.dtd">
<svg xmlns:xl="http://www.w3.org/1999/xlink" xmlns:dc="http://purl.org/dc/elements/1.1/" xmlns="http://www.w3.org/2000/svg" version="1.1" viewBox="2340.4 110.04602 32 32" width="32" height="32">
  <defs/>
  <metadata> Produced by OmniGraffle 7.9.3 
    <dc:date>2019-05-26 15:31:33 +0000</dc:date>
  </metadata>
  <g id="Page" fill-opacity="1" stroke="none" fill="none" stroke-opacity="1" stroke-dasharray="none">
    <title>Page</title>
    <g id="Page: Layer 1">
      <title>Layer 1</title>
      <g id="Graphic_159">
        <path d="M 2370.6347 110.04602 L 2342.1654 110.04602 C 2341.1907 110.04602 2340.4 110.83669 2340.4 111.81135 L 2340.4 140.28069 C 2340.4 141.25669 2341.1907 142.04602 2342.1654 142.04602 L 2370.6334 142.04602 C 2371.6107 142.04602 2372.4 141.25669 2372.4 140.28069 L 2372.4 111.81135 C 2372.4 110.83669 2371.6107 110.04602 2370.6347 110.04602 M 2356.4 113.89204 C 2363.2825 113.89204 2368.8626 119.47215 2368.8626 126.3546 C 2368.8626 131.85371 2365.2952 136.52718 2360.309 138.16185 C 2359.6704 138.28648 2359.4523 137.89702 2359.4523 137.56988 C 2359.4523 137.16485 2359.468 135.82512 2359.468 134.15721 C 2359.468 132.98989 2359.063 132.22551 2358.6267 131.85164 C 2361.3996 131.54527 2364.3127 130.49114 2364.3127 125.70344 C 2364.3127 124.34294 2363.8298 123.2317 2363.0353 122.35932 C 2363.16 122.04464 2363.5806 120.77761 2362.9107 119.06089 C 2362.9107 119.06089 2361.867 118.72648 2359.499 120.3383 C 2358.502 120.06101 2357.4427 119.92392 2356.3834 119.91769 C 2355.324 119.92392 2354.2648 120.06101 2353.2678 120.3383 C 2350.8843 118.72648 2349.8406 119.06089 2349.8406 119.06089 C 2349.1707 120.77761 2349.5913 122.04464 2349.7315 122.35932 C 2348.9318 123.2317 2348.449 124.34294 2348.449 125.70344 C 2348.449 130.47868 2351.358 131.55046 2354.1256 131.86202 C 2353.7694 132.17359 2353.4485 132.72298 2353.3363 133.52889 C 2352.624 133.84773 2350.8178 134.39816 2349.7066 132.49242 C 2349.7066 132.49242 2349.0492 131.29601 2347.7977 131.20878 C 2347.7977 131.20878 2346.5816 131.1932 2347.7105 131.96588 C 2347.7105 131.96588 2348.53 132.35014 2349.097 133.78853 C 2349.097 133.78853 2349.828 136.2125 2353.2948 135.46059 C 2353.3 136.49914 2353.3104 137.28324 2353.3104 137.57923 C 2353.3104 137.91052 2353.082 138.29582 2352.4587 138.17847 C 2347.508 136.53237 2343.9375 131.86202 2343.9375 126.3546 C 2343.9375 119.47215 2349.5145 113.89204 2356.4 113.89204" fill="#666"/>
      </g>
    </g>
  </g>
</svg>
