<?xml version="1.0" encoding="UTF-8" standalone="no"?>
<!DOCTYPE svg PUBLIC "-//W3C//DTD SVG 1.1//EN" "http://www.w3.org/Graphics/SVG/1.1/DTD/svg11.dtd">
<svg xmlns="http://www.w3.org/2000/svg" xmlns:dc="http://purl.org/dc/elements/1.1/" xmlns:xl="http://www.w3.org/1999/xlink" version="1.1" viewBox="2003 -436 455.73 446.2431" width="455.73" height="446.2431">
  <defs/>
  <g id="Page" fill="none" stroke="none" stroke-opacity="1" fill-opacity="1" stroke-dasharray="none">
    <title>Page</title>
    <g id="Page: Layer 1">
      <title>Layer 1</title>
      <g id="Graphic_24">
        <path d="M 2230.8365 -436 C 2105.0266 -436 2003 -333.5747 2003 -207.22354 C 2003 -106.16541 2068.2833 -20.431206 2158.8597 9.846356 C 2170.253 11.954107 2174.4114 4.890292 2174.4114 -1.1766137 C 2174.4114 -6.616891 2174.212 -21.00087 2174.0981 -40.084562 C 2110.7232 -26.270247 2097.336 -70.76089 2097.336 -70.76089 C 2086.9967 -97.19323 2072.043 -104.22856 2072.043 -104.22856 C 2051.3359 -118.41316 2073.5812 -118.12832 2073.5812 -118.12832 C 2096.4531 -116.50479 2108.473 -94.5443 2108.473 -94.5443 C 2128.81 -59.5955 2161.822 -69.67853 2174.8102 -75.54605 C 2176.861 -90.3288 2182.757 -100.41182 2189.2796 -106.13693 C 2138.6936 -111.919 2085.4871 -131.54388 2085.4871 -219.18645 C 2085.4871 -244.16615 2094.3739 -264.58855 2108.9572 -280.59607 C 2106.5931 -286.37814 2098.7887 -309.64886 2111.179 -341.1227 C 2111.179 -341.1227 2130.3196 -347.27507 2173.8418 -317.6811 C 2192.014 -322.7511 2211.4965 -325.2861 2230.8935 -325.37154 C 2250.2335 -325.2576 2269.7445 -322.7511 2287.9452 -317.6526 C 2331.439 -347.2466 2350.551 -341.09423 2350.551 -341.09423 C 2362.9697 -309.5919 2355.1654 -286.34966 2352.8297 -280.5676 C 2367.4416 -264.56007 2376.243 -244.13767 2376.243 -219.15797 C 2376.243 -131.28753 2322.9794 -111.94749 2272.2225 -106.27934 C 2280.3972 -99.21553 2287.6888 -85.2588 2287.6888 -63.92494 C 2287.6888 -33.33406 2287.404 -8.667676 2287.404 -1.1766137 C 2287.404 4.947258 2291.5056 12.06804 2303.0697 9.817873 C 2393.5036 -20.488172 2458.73 -106.1939 2458.73 -207.22354 C 2458.73 -333.5747 2356.7034 -436 2230.8365 -436 Z" fill="#666"/>
      </g>
    </g>
  </g>
</svg>
