<?xml version="1.0" encoding="UTF-8" standalone="no"?>
<!DOCTYPE svg PUBLIC "-//W3C//DTD SVG 1.1//EN" "http://www.w3.org/Graphics/SVG/1.1/DTD/svg11.dtd">
<svg xmlns:xl="http://www.w3.org/1999/xlink" xmlns:dc="http://purl.org/dc/elements/1.1/" xmlns="http://www.w3.org/2000/svg" version="1.1" viewBox="2382.8 110.04602 32 32" width="32" height="32">
  <defs/>
  <metadata> Produced by OmniGraffle 7.9.3 
    <dc:date>2019-05-26 15:31:33 +0000</dc:date>
  </metadata>
  <g id="Page" fill-opacity="1" stroke="none" fill="none" stroke-opacity="1" stroke-dasharray="none">
    <title>Page</title>
    <g id="Page: Layer 1">
      <title>Layer 1</title>
      <g id="Graphic_152">
        <path d="M 2413.0347 110.04602 L 2384.5654 110.04602 C 2383.5907 110.04602 2382.8 110.83669 2382.8 111.81135 L 2382.8 140.28069 C 2382.8 141.25669 2383.5907 142.04602 2384.5654 142.04602 L 2399.8907 142.04602 L 2399.8907 129.65402 L 2395.7187 129.65402 L 2395.7187 124.82602 L 2399.8907 124.82602 L 2399.8907 121.25935 C 2399.8907 117.12735 2402.416 114.87935 2406.1027 114.87935 C 2407.8694 114.87935 2409.388 115.00869 2409.8307 115.06735 L 2409.8307 119.38735 L 2407.2694 119.38735 C 2405.2694 119.38735 2404.88 120.34869 2404.88 121.74869 L 2404.88 124.83002 L 2409.6587 124.83002 L 2409.0387 129.67002 L 2404.88 129.67002 L 2404.88 142.04602 L 2413.0334 142.04602 C 2414.0107 142.04602 2414.8 141.25669 2414.8 140.28069 L 2414.8 111.81135 C 2414.8 110.83669 2414.0107 110.04602 2413.0347 110.04602" fill="#666"/>
      </g>
    </g>
  </g>
</svg>
