<?xml version="1.0" encoding="UTF-8" standalone="no"?>
<!DOCTYPE svg PUBLIC "-//W3C//DTD SVG 1.1//EN" "http://www.w3.org/Graphics/SVG/1.1/DTD/svg11.dtd">
<svg xmlns:xl="http://www.w3.org/1999/xlink" xmlns:dc="http://purl.org/dc/elements/1.1/" xmlns="http://www.w3.org/2000/svg" version="1.1" viewBox="2738.2385 110.04602 321.95398 321.95398" width="321.95398" height="321.95398">
  <defs/>
  <g id="Page" fill-opacity="1" stroke="none" fill="none" stroke-opacity="1" stroke-dasharray="none">
    <title>Page</title>
    <g id="Page: Layer 1">
      <title>Layer 1</title>
      <g id="Graphic_60">
        <path d="M 2738.2385 110.04602 L 2738.2385 432 L 3060.1925 432 L 3060.1925 110.04602 Z M 2851.63 141.0146 C 2854.1873 140.93517 2856.3596 142.4882 2858.7216 143.23554 C 2864.491 141.3518 2865.8043 143.93182 2868.6372 144.98311 C 2874.924 143.6546 2876.8336 146.54669 2879.8513 149.59926 L 2883.357 149.52955 C 2892.8373 155.11675 2897.5377 166.4954 2899.2075 172.34603 C 2900.8772 166.49621 2905.5882 155.11756 2915.07 149.52955 L 2918.5767 149.59926 C 2921.5895 146.54669 2923.5 143.6546 2929.7867 144.98311 C 2932.6188 143.93182 2933.9376 141.3518 2939.7023 143.23554 C 2943.3012 142.0967 2946.451 139.08547 2951.2123 142.84242 C 2955.222 141.29587 2959.1096 140.75928 2962.586 143.90669 C 2967.9544 143.21042 2969.6987 144.64754 2971.02 146.3246 C 2972.2018 146.30028 2979.8405 145.11361 2983.342 150.34011 C 2992.1497 149.29773 2994.9307 155.51879 2991.7792 161.31997 C 2993.5754 164.10344 2995.442 166.85367 2991.2353 172.15798 C 2992.7227 175.1141 2991.801 178.32068 2988.2963 182.20084 C 2989.221 186.35577 2987.403 189.28757 2984.1437 191.57254 C 2984.7525 197.25863 2978.9286 200.5649 2977.189 201.74265 C 2976.522 205.05542 2975.1295 208.18175 2968.4772 209.91068 C 2967.3813 214.84862 2963.382 215.70133 2959.5108 216.73722 C 2972.307 224.17736 2983.2805 233.96408 2983.206 257.97452 L 2985.084 261.31808 C 2999.756 270.24074 3012.956 298.92082 2992.3142 322.23337 C 2990.9654 329.53004 2988.704 334.77113 2986.6905 340.5715 C 2983.6793 363.94484 2964.0256 374.88985 2958.843 376.1843 C 2951.2455 381.9701 2943.1553 387.46003 2932.208 391.30614 C 2921.887 401.95043 2899.132 406 2898.9667 406 C 2887.725 406.0065 2876.5442 401.9496 2866.225 391.30614 C 2855.276 387.46003 2847.1857 381.9701 2839.59 376.1843 C 2834.4056 374.88985 2814.752 363.94484 2811.7406 340.5715 C 2809.7272 334.77113 2807.4657 329.53004 2806.1178 322.23337 C 2785.4744 298.92325 2798.6752 270.24398 2813.348 261.32132 L 2815.2228 257.97776 C 2815.1482 233.9649 2826.1216 224.17898 2838.918 216.74046 C 2835.046 215.70457 2831.0482 214.85186 2829.9507 209.91392 C 2823.2984 208.1858 2821.9067 205.05866 2821.2388 201.7459 C 2819.5 200.56815 2813.6755 197.26187 2814.2858 191.57579 C 2811.025 189.29081 2809.2076 186.35982 2810.1317 182.20408 C 2806.6276 178.32392 2805.7052 175.11734 2807.1926 172.16204 C 2802.9874 166.85448 2804.851 164.10425 2806.6495 161.32078 C 2803.4964 155.5196 2806.279 149.29935 2815.0834 150.34092 C 2818.5875 145.11442 2826.227 146.3019 2827.4056 146.32621 C 2828.7276 144.64835 2830.472 143.21123 2835.8403 143.9075 C 2839.3167 140.76009 2843.2058 141.2975 2847.214 142.84323 C 2848.8514 141.552 2850.2942 141.05676 2851.634 141.01542 M 2929.9626 333.06003 L 2929.9626 332.7674 C 2929.8743 317.42107 2916.3128 305.04623 2899.6703 305.1273 C 2883.028 305.20834 2869.6082 317.7145 2869.6958 333.06003 C 2869.695 333.15757 2869.695 333.2551 2869.6958 333.35264 C 2869.7833 348.699 2883.3456 361.07383 2899.988 360.99278 C 2916.6297 360.91253 2930.05 348.4064 2929.9626 333.06003 M 2882.3932 253.6826 C 2869.9073 245.5024 2851.9145 250.7824 2842.2048 265.47545 C 2832.496 280.16768 2834.746 298.71007 2847.232 306.89107 C 2859.7178 315.07125 2877.7106 309.79126 2887.4203 295.0982 C 2897.13 280.406 2894.879 261.8636 2882.3932 253.6826 M 2916.093 252.2017 C 2903.608 260.38188 2901.357 278.9251 2911.066 293.61732 C 2920.7757 308.31036 2938.7685 313.59036 2951.2544 305.40936 C 2963.7403 297.22918 2965.9912 278.6868 2956.2815 263.99374 C 2946.5726 249.3015 2928.5798 244.02152 2916.093 252.2017 M 2819.9897 267.05685 C 2797.6215 279.8305 2801.5073 308.24957 2813.5725 317.9536 C 2824.541 322.8259 2833.4702 263.44337 2819.9897 267.05685 M 2975.7755 266.3168 L 2975.7755 266.3168 C 2962.2935 262.70414 2971.2242 322.0891 2982.1927 317.2168 C 2994.258 307.51196 2998.1438 279.08963 2975.7755 266.3168 Z M 2929.973 222.09503 C 2921.4023 223.5354 2971.0483 266.88664 2971.8135 257.21502 C 2972.595 231.98874 2953.237 218.16705 2929.973 222.09503 M 2865.6956 221.355 C 2842.43 217.4262 2823.074 231.25113 2823.8553 256.4758 C 2824.6205 266.1466 2874.2673 222.79536 2865.6956 221.355 M 2899.1135 215.47194 C 2885.2285 215.11043 2871.903 225.7766 2871.8705 231.9636 C 2871.8324 239.48076 2882.8487 247.17784 2899.2083 247.3732 C 2915.914 247.49234 2926.5745 241.2121 2926.628 233.45423 C 2926.6896 224.6645 2911.434 215.33576 2899.1135 215.47113 L 2899.1135 215.47194 M 2899.9613 369.62444 C 2887.931 369.32372 2869.4818 374.44485 2869.7063 381.0039 C 2869.5142 385.4774 2884.191 398.38396 2899.159 397.73794 C 2913.611 397.9868 2928.544 385.1005 2928.343 379.3974 C 2928.3107 373.52324 2912.067 369.09596 2899.9613 369.62444 M 2855.2475 334.8149 L 2855.2483 334.8149 C 2845.357 323.33816 2832.5064 316.4946 2824.1892 321.5606 C 2818.6272 325.79335 2817.6067 340.20108 2825.5283 354.35996 C 2837.2733 371.2334 2853.7982 372.92424 2860.603 368.81874 C 2867.7958 363.44067 2863.8662 345.1982 2855.2475 334.8149 M 2942.9502 331.5232 C 2933.6247 342.4455 2928.4323 362.3675 2935.2345 368.7839 C 2941.7392 373.76884 2959.2004 373.07176 2972.098 355.1754 C 2981.4632 343.15557 2978.3255 323.08203 2972.976 317.75178 C 2965.029 311.6053 2953.6204 319.4718 2942.9502 331.51997 L 2942.9502 331.5232 M 2832.7855 165.6141 C 2852.3425 172.26262 2869.9907 181.12442 2884.769 193.31282 C 2902.144 185.10021 2890.1665 164.38632 2881.6904 156.16318 C 2881.26 158.33468 2880.7737 159.70696 2880.2177 160.11224 C 2877.4577 157.1091 2875.2027 154.03303 2871.6492 151.14257 C 2871.638 152.8407 2872.493 154.68229 2870.3774 156.02944 C 2868.4726 153.42754 2865.8975 151.10528 2862.4785 149.1348 C 2864.1256 152.01716 2862.7614 152.89338 2861.8763 154.08815 C 2859.2655 151.81533 2856.785 149.51253 2851.9696 147.7293 C 2853.286 149.3569 2855.125 150.94641 2853.174 152.81638 C 2850.4855 151.11177 2847.7798 149.40878 2841.3934 148.1978 C 2842.833 149.82622 2845.8077 151.45544 2844.0042 153.08386 C 2840.6274 151.7748 2836.8924 150.82483 2832.7585 150.27283 C 2834.738 151.92557 2836.389 153.54426 2834.767 154.82414 C 2831.1536 153.69583 2826.1767 152.17603 2821.3126 153.4859 L 2824.392 156.63169 C 2824.733 157.05237 2817.1884 156.95915 2812.209 157.03291 C 2814.0264 159.5959 2815.8794 162.06974 2816.959 166.46947 C 2816.4654 166.97688 2813.998 166.69561 2811.671 166.46947 C 2814.0572 171.5687 2818.2008 172.85588 2819.1678 175.0379 C 2817.7104 176.1581 2815.688 175.8663 2813.4785 175.10437 C 2815.196 178.69678 2818.7982 181.15845 2821.645 184.07404 C 2820.925 184.5928 2819.668 184.90163 2816.6916 184.54255 C 2819.321 187.38032 2822.4984 189.97412 2826.2635 192.3069 C 2825.5964 193.0891 2823.3033 193.0583 2821.1764 193.11018 C 2824.5872 196.49913 2828.9772 198.25643 2833.0908 200.47331 C 2831.04 201.89585 2829.5738 201.56352 2828.0037 201.54407 C 2830.9137 203.97089 2835.8613 205.23374 2840.454 206.69842 C 2839.581 208.07638 2838.7072 208.4533 2836.8397 208.84074 C 2841.7014 211.57152 2848.665 210.32325 2850.629 211.71904 C 2850.1548 213.09132 2848.8173 213.98537 2847.215 214.73108 C 2855.0416 215.1923 2876.447 214.44171 2880.55 197.99624 C 2872.5407 189.0641 2857.924 178.5769 2832.7855 165.61411 M 2966.2314 165.60215 L 2966.2314 165.60216 L 2966.2314 165.60216 C 2966.2314 165.60216 2966.2314 165.60216 2966.2376 165.59892 L 2966.2376 165.59892 C 2966.2356 165.6 2966.2335 165.60108 2966.2314 165.60216 C 2941.082 178.57208 2926.4587 189.05974 2918.4478 197.99624 C 2922.551 214.44171 2943.9553 215.1923 2951.782 214.73108 C 2950.1796 213.98537 2948.8422 213.09132 2948.3688 211.71904 C 2950.3328 210.32325 2957.2963 211.57152 2962.1573 208.84074 C 2960.2897 208.4533 2959.4168 208.07638 2958.543 206.69842 C 2963.1364 205.23374 2968.084 203.97089 2970.9932 201.54407 C 2969.423 201.56352 2967.957 201.89585 2965.906 200.47331 C 2970.0205 198.25643 2974.4105 196.49913 2977.8214 193.11018 C 2975.6936 193.0583 2973.4006 193.0891 2972.7343 192.3069 C 2976.4993 189.97412 2979.6767 187.38032 2982.3062 184.54255 C 2979.329 184.90163 2978.0726 184.5928 2977.353 184.07404 C 2980.1987 181.15845 2983.8017 178.69678 2985.5193 175.10437 C 2983.309 175.8663 2981.2865 176.1581 2979.829 175.0379 C 2980.796 172.85588 2984.9405 171.5687 2987.326 166.46947 C 2984.9997 166.69561 2982.5315 166.97688 2982.038 166.46947 C 2983.12 162.06812 2984.973 159.59429 2986.7902 157.0313 C 2981.811 156.95753 2974.2663 157.05075 2974.6075 156.63007 L 2977.6868 153.48347 C 2972.8226 152.17441 2967.8458 153.69421 2964.2323 154.82251 C 2962.6104 153.54264 2964.2607 151.92395 2966.24 150.27121 C 2962.107 150.8224 2958.371 151.77318 2954.995 153.08224 C 2953.191 151.45382 2956.1664 149.8246 2957.606 148.19618 C 2951.2196 149.40716 2948.514 151.11014 2945.8245 152.81475 C 2943.8735 150.94479 2945.7134 149.35528 2947.0298 147.72767 C 2942.2142 149.5109 2939.734 151.81371 2937.123 154.08652 C 2936.237 152.89176 2934.8738 152.01554 2936.52 149.13319 C 2933.102 151.10366 2930.5268 153.42592 2928.622 156.02782 C 2926.5064 154.68067 2927.3615 152.83826 2927.35 151.14095 C 2923.7967 154.0314 2921.5417 157.10668 2918.7817 160.11061 C 2918.2257 159.70533 2917.7393 158.33305 2917.309 156.16075 C 2908.833 164.3847 2896.8552 185.0986 2914.2304 193.3112 C 2929.007 181.11423 2946.6634 172.25164 2966.2314 165.60215 L 2966.2376 165.59892 C 2966.2356 165.6 2966.2335 165.60108 2966.2314 165.60216 Z" fill="#666"/>
      </g>
    </g>
  </g>
</svg>
