<?xml version="1.0" encoding="UTF-8" standalone="no"?>
<!DOCTYPE svg PUBLIC "-//W3C//DTD SVG 1.1//EN" "http://www.w3.org/Graphics/SVG/1.1/DTD/svg11.dtd">
<svg xmlns:xl="http://www.w3.org/1999/xlink" xmlns:dc="http://purl.org/dc/elements/1.1/" xmlns="http://www.w3.org/2000/svg" version="1.1" viewBox="2501.8 110.04602 32 32" width="32" height="32">
  <defs/>
  <metadata> Produced by OmniGraffle 7.9.3 
    <dc:date>2019-05-26 15:46:24 +0000</dc:date>
  </metadata>
  <g id="Page" fill-opacity="1" stroke="none" fill="none" stroke-opacity="1" stroke-dasharray="none">
    <title>Page</title>
    <g id="Page: Layer 1">
      <title>Layer 1</title>
      <g id="Graphic_175">
        <path d="M 2532.0347 110.04602 L 2503.5654 110.04602 C 2502.5907 110.04602 2501.8 110.83669 2501.8 111.81135 L 2501.8 140.28069 C 2501.8 141.25669 2502.5907 142.04602 2503.5654 142.04602 L 2532.0334 142.04602 C 2533.0107 142.04602 2533.8 141.25669 2533.8 140.28069 L 2533.8 111.81135 C 2533.8 110.83669 2533.0107 110.04602 2532.0347 110.04602 M 2517.7737 113.4 L 2517.7737 113.4 C 2524.841 113.40406 2530.4693 119.04252 2530.447 126.09365 C 2530.4247 132.93196 2524.6404 138.69811 2517.806 138.69203 C 2510.7063 138.68595 2505.1428 133.04951 2505.153 125.87678 C 2505.163 118.92092 2510.751 113.39595 2517.7737 113.4 Z M 2528.6696 125.98218 L 2528.6696 125.98218 C 2528.6493 119.98092 2523.6736 115.0052 2517.7595 115.07411 C 2511.6934 115.141 2506.7926 120.0782 2506.823 126.08554 C 2506.8534 132.04626 2511.823 136.94699 2517.81 136.91861 C 2523.8215 136.89024 2528.6898 131.98546 2528.6696 125.98218 Z M 2517.808 120.31331 L 2517.808 120.31331 C 2519.46 120.31331 2521.1117 120.3356 2522.7636 120.3052 C 2523.6108 120.28899 2523.9817 120.59097 2523.9898 121.47667 C 2524.006 123.26833 2523.9594 123.34738 2522.1555 123.35751 C 2518.931 123.37575 2519.3464 123.05958 2519.324 126.14634 C 2519.308 128.43862 2519.2796 130.73292 2519.3363 133.02317 C 2519.3647 134.14802 2518.7688 134.28382 2517.875 134.26355 C 2516.4603 134.23315 2516.3002 134.16221 2516.292 133.0556 C 2516.274 130.29108 2516.29 127.52657 2516.278 124.76206 C 2516.274 123.51155 2516.128 123.3798 2514.8734 123.35954 C 2514.233 123.3494 2513.5924 123.36359 2512.952 123.35143 C 2511.7744 123.32914 2511.6447 123.18929 2511.6265 121.97728 C 2511.6245 121.84149 2511.6366 121.7057 2511.6245 121.57193 C 2511.5474 120.67407 2511.9244 120.27885 2512.8527 120.30115 C 2514.5045 120.34168 2516.1563 120.31331 2517.808 120.31331 Z" fill="#666"/>
      </g>
    </g>
  </g>
</svg>
